<svg width="143" height="48" viewBox="0 0 143 48" fill="none" xmlns="http://www.w3.org/2000/svg">
<g filter="url(#filter0_d)">
<path d="M134.197 40H8.729C7.47499 39.9971 6.27324 39.4974 5.38689 38.6103C4.50055 37.7232 4.00185 36.521 4 35.267V4.726C4.00185 3.47264 4.50078 2.27118 5.38732 1.3852C6.27386 0.499218 7.47564 0.00105789 8.729 0L134.197 0C136.803 0 139 2.12 139 4.726V35.267C139 37.872 136.803 40 134.197 40Z" fill="#A6A6A6"/>
<path d="M138.032 35.268C138.032 35.7713 137.933 36.2697 137.74 36.7346C137.547 37.1996 137.265 37.6219 136.909 37.9776C136.553 38.3334 136.13 38.6154 135.665 38.8076C135.2 38.9999 134.701 39.0985 134.198 39.098H8.72901C7.71208 39.0991 6.73636 38.6962 6.01644 37.978C5.29652 37.2597 4.89134 36.285 4.89001 35.268V4.72501C4.89134 3.70762 5.29636 2.73234 6.01614 2.01331C6.73592 1.29428 7.71162 0.890279 8.72901 0.890015H134.197C134.701 0.890015 135.199 0.989217 135.664 1.18196C136.13 1.3747 136.552 1.6572 136.908 2.01332C137.264 2.36945 137.547 2.79222 137.739 3.2575C137.932 3.72278 138.031 4.22144 138.031 4.72501L138.032 35.268Z" fill="#2F313F"/>
<path d="M34.128 19.784C34.099 16.561 36.767 14.993 36.889 14.92C35.378 12.717 33.036 12.416 32.213 12.392C30.246 12.185 28.338 13.569 27.336 13.569C26.314 13.569 24.771 12.412 23.108 12.446C20.968 12.479 18.966 13.718 17.868 15.642C15.602 19.565 17.292 25.33 19.463 28.501C20.549 30.054 21.818 31.788 23.479 31.727C25.104 31.66 25.711 30.691 27.672 30.691C29.615 30.691 30.185 31.727 31.879 31.688C33.623 31.66 34.721 30.128 35.769 28.561C37.024 26.781 37.528 25.028 37.548 24.938C37.507 24.924 34.161 23.647 34.128 19.784ZM30.928 10.306C31.802 9.21304 32.4 7.72604 32.234 6.21704C30.969 6.27304 29.387 7.09204 28.476 8.16104C27.67 9.10304 26.95 10.647 27.136 12.099C28.557 12.205 30.016 11.382 30.928 10.306ZM57.645 31.504H55.374L54.13 27.595H49.806L48.621 31.504H46.41L50.694 18.196H53.34L57.645 31.504ZM53.755 25.955L52.63 22.48C52.511 22.125 52.288 21.289 51.959 19.973H51.919C51.7195 20.8115 51.5089 21.6472 51.287 22.48L50.182 25.955H53.755ZM68.662 26.588C68.662 28.22 68.221 29.51 67.339 30.457C66.549 31.3 65.568 31.721 64.397 31.721C63.133 31.721 62.225 31.267 61.672 30.359H61.632V35.414H59.5V25.067C59.5 24.041 59.473 22.988 59.421 21.908H61.296L61.415 23.429H61.455C62.166 22.283 63.245 21.711 64.693 21.711C65.825 21.711 66.77 22.158 67.526 23.053C68.284 23.949 68.662 25.127 68.662 26.588ZM66.49 26.666C66.49 25.732 66.28 24.962 65.858 24.356C65.397 23.724 64.778 23.408 64.002 23.408C63.476 23.408 62.998 23.584 62.571 23.931C62.143 24.281 61.863 24.738 61.732 25.304C61.666 25.568 61.633 25.784 61.633 25.954V27.554C61.633 28.252 61.847 28.841 62.275 29.322C62.703 29.803 63.259 30.043 63.943 30.043C64.746 30.043 65.371 29.733 65.818 29.115C66.266 28.496 66.49 27.68 66.49 26.666ZM79.699 26.588C79.699 28.22 79.258 29.51 78.375 30.457C77.586 31.3 76.605 31.721 75.434 31.721C74.17 31.721 73.262 31.267 72.71 30.359H72.67V35.414H70.538V25.067C70.538 24.041 70.511 22.988 70.459 21.908H72.334L72.453 23.429H72.493C73.203 22.283 74.282 21.711 75.731 21.711C76.862 21.711 77.807 22.158 78.565 23.053C79.32 23.949 79.699 25.127 79.699 26.588ZM77.527 26.666C77.527 25.732 77.316 24.962 76.894 24.356C76.433 23.724 75.816 23.408 75.039 23.408C74.5149 23.4079 74.0077 23.5931 73.607 23.931C73.179 24.281 72.9 24.738 72.769 25.304C72.704 25.568 72.67 25.784 72.67 25.954V27.554C72.67 28.252 72.884 28.841 73.31 29.322C73.738 29.802 74.294 30.043 74.98 30.043C75.783 30.043 76.408 29.733 76.855 29.115C77.303 28.496 77.527 27.68 77.527 26.666ZM92.039 27.772C92.039 28.904 91.646 29.825 90.857 30.536C89.99 31.313 88.783 31.701 87.232 31.701C85.8 31.701 84.652 31.425 83.783 30.872L84.277 29.095C85.213 29.661 86.24 29.945 87.359 29.945C88.162 29.945 88.787 29.763 89.236 29.401C89.683 29.039 89.906 28.553 89.906 27.947C89.906 27.407 89.722 26.952 89.353 26.583C88.986 26.214 88.373 25.871 87.517 25.554C85.187 24.685 84.023 23.412 84.023 21.738C84.023 20.644 84.431 19.747 85.248 19.049C86.062 18.35 87.148 18.001 88.506 18.001C89.717 18.001 90.723 18.212 91.526 18.633L90.993 20.371C90.243 19.963 89.395 19.759 88.446 19.759C87.696 19.759 87.11 19.944 86.69 20.312C86.5197 20.4627 86.3839 20.6484 86.2919 20.8563C86.1999 21.0643 86.1539 21.2897 86.157 21.517C86.157 22.043 86.36 22.478 86.768 22.82C87.123 23.136 87.768 23.478 88.704 23.847C89.849 24.308 90.69 24.847 91.231 25.465C91.77 26.081 92.039 26.852 92.039 27.772ZM99.088 23.508H96.738V28.167C96.738 29.352 97.152 29.944 97.982 29.944C98.363 29.944 98.679 29.911 98.929 29.845L98.988 31.464C98.568 31.621 98.015 31.7 97.33 31.7C96.488 31.7 95.83 31.443 95.355 30.93C94.882 30.416 94.644 29.554 94.644 28.343V23.506H93.244V21.906H94.644V20.149L96.738 19.517V21.906H99.088V23.508ZM109.691 26.627C109.691 28.102 109.269 29.313 108.427 30.26C107.544 31.235 106.372 31.721 104.911 31.721C103.503 31.721 102.382 31.254 101.546 30.32C100.71 29.386 100.292 28.207 100.292 26.786C100.292 25.299 100.722 24.081 101.585 23.134C102.446 22.186 103.608 21.712 105.069 21.712C106.477 21.712 107.61 22.179 108.465 23.114C109.283 24.021 109.691 25.192 109.691 26.627ZM107.479 26.696C107.479 25.811 107.29 25.052 106.907 24.419C106.46 23.653 105.821 23.271 104.993 23.271C104.136 23.271 103.485 23.654 103.038 24.419C102.655 25.053 102.466 25.824 102.466 26.736C102.466 27.621 102.655 28.38 103.038 29.012C103.499 29.778 104.143 30.16 104.974 30.16C105.788 30.16 106.427 29.77 106.888 28.992C107.281 28.347 107.479 27.58 107.479 26.696ZM116.621 23.783C116.399 23.743 116.174 23.7232 115.949 23.724C115.199 23.724 114.619 24.007 114.211 24.574C113.856 25.074 113.678 25.706 113.678 26.469V31.504H111.547L111.567 24.93C111.567 23.824 111.54 22.817 111.487 21.909H113.344L113.422 23.745H113.481C113.706 23.114 114.061 22.606 114.547 22.225C114.992 21.8921 115.532 21.7118 116.088 21.711C116.285 21.711 116.463 21.725 116.621 21.75V23.783ZM126.156 26.252C126.161 26.5761 126.135 26.9 126.078 27.219H119.682C119.707 28.167 120.016 28.892 120.61 29.392C121.149 29.839 121.846 30.063 122.702 30.063C123.649 30.063 124.513 29.912 125.29 29.609L125.624 31.089C124.716 31.485 123.644 31.682 122.407 31.682C120.919 31.682 119.751 31.244 118.901 30.369C118.053 29.494 117.628 28.319 117.628 26.845C117.628 25.398 118.023 24.193 118.814 23.232C119.642 22.206 120.761 21.693 122.169 21.693C123.552 21.693 124.599 22.206 125.31 23.232C125.873 24.047 126.156 25.055 126.156 26.252ZM124.123 25.699C124.137 25.067 123.998 24.521 123.709 24.06C123.34 23.467 122.773 23.171 122.01 23.171C121.313 23.171 120.746 23.46 120.313 24.04C119.958 24.501 119.747 25.054 119.682 25.698H124.123V25.699ZM53.05 10.009C53.05 11.186 52.697 12.072 51.992 12.667C51.339 13.216 50.411 13.491 49.209 13.491C48.613 13.491 48.103 13.465 47.676 13.413V6.98204C48.233 6.89204 48.833 6.84604 49.481 6.84604C50.626 6.84604 51.489 7.09504 52.071 7.59304C52.723 8.15604 53.05 8.96104 53.05 10.009ZM51.945 10.038C51.945 9.27504 51.743 8.69004 51.339 8.28204C50.935 7.87504 50.345 7.67104 49.568 7.67104C49.238 7.67104 48.957 7.69304 48.724 7.73904V12.628C48.853 12.648 49.089 12.657 49.432 12.657C50.234 12.657 50.853 12.434 51.289 11.988C51.725 11.542 51.945 10.892 51.945 10.038ZM58.909 11.037C58.909 11.762 58.702 12.356 58.288 12.822C57.854 13.301 57.279 13.54 56.561 13.54C55.869 13.54 55.318 13.311 54.907 12.851C54.497 12.392 54.292 11.813 54.292 11.115C54.292 10.385 54.503 9.78604 54.927 9.32104C55.351 8.85604 55.921 8.62304 56.639 8.62304C57.331 8.62304 57.887 8.85204 58.308 9.31104C58.708 9.75704 58.909 10.333 58.909 11.037ZM57.822 11.071C57.822 10.636 57.728 10.263 57.541 9.95204C57.321 9.57604 57.008 9.38804 56.601 9.38804C56.18 9.38804 55.86 9.57604 55.64 9.95204C55.452 10.263 55.359 10.642 55.359 11.09C55.359 11.525 55.453 11.898 55.64 12.209C55.867 12.585 56.183 12.773 56.591 12.773C56.991 12.773 57.305 12.582 57.531 12.199C57.725 11.882 57.822 11.506 57.822 11.071ZM66.765 8.71904L65.29 13.433H64.33L63.719 11.386C63.5668 10.8852 63.4403 10.3768 63.34 9.86304H63.321C63.2306 10.379 63.104 10.8879 62.942 11.386L62.293 13.433H61.322L59.935 8.71904H61.012L61.545 10.96C61.674 11.49 61.78 11.995 61.865 12.473H61.884C61.962 12.079 62.091 11.577 62.273 10.97L62.942 8.72004H63.796L64.437 10.922C64.592 11.459 64.718 11.976 64.815 12.474H64.844C64.915 11.989 65.022 11.472 65.164 10.922L65.736 8.72004H66.765V8.71904ZM72.198 13.433H71.15V10.733C71.15 9.90104 70.834 9.48504 70.2 9.48504C70.0561 9.48081 69.913 9.50952 69.7818 9.56896C69.6507 9.6284 69.5348 9.71701 69.443 9.82804C69.2511 10.0531 69.1476 10.3403 69.152 10.636V13.432H68.104V10.066C68.104 9.65204 68.091 9.20304 68.066 8.71704H68.987L69.036 9.45404H69.065C69.187 9.22504 69.369 9.03604 69.608 8.88504C69.892 8.70904 70.21 8.62004 70.558 8.62004C70.998 8.62004 71.364 8.76204 71.655 9.04704C72.017 9.39604 72.198 9.91704 72.198 10.609V13.433ZM75.088 13.433H74.041V6.55604H75.088V13.433ZM81.258 11.037C81.258 11.762 81.051 12.356 80.637 12.822C80.203 13.301 79.627 13.54 78.91 13.54C78.217 13.54 77.666 13.311 77.256 12.851C76.846 12.392 76.641 11.813 76.641 11.115C76.641 10.385 76.852 9.78604 77.276 9.32104C77.7 8.85604 78.27 8.62304 78.987 8.62304C79.68 8.62304 80.235 8.85204 80.657 9.31104C81.057 9.75704 81.258 10.333 81.258 11.037ZM80.17 11.071C80.17 10.636 80.076 10.263 79.889 9.95204C79.67 9.57604 79.356 9.38804 78.95 9.38804C78.528 9.38804 78.208 9.57604 77.989 9.95204C77.801 10.263 77.708 10.642 77.708 11.09C77.708 11.525 77.802 11.898 77.989 12.209C78.216 12.585 78.532 12.773 78.94 12.773C79.34 12.773 79.653 12.582 79.879 12.199C80.074 11.882 80.17 11.506 80.17 11.071ZM86.33 13.433H85.389L85.311 12.89H85.282C84.96 13.323 84.501 13.54 83.905 13.54C83.46 13.54 83.1 13.397 82.829 13.113C82.7073 12.9852 82.612 12.8346 82.5487 12.6699C82.4854 12.5051 82.4552 12.3295 82.46 12.153C82.46 11.577 82.7 11.138 83.183 10.834C83.665 10.53 84.343 10.381 85.216 10.388V10.3C85.216 9.67904 84.89 9.36904 84.237 9.36904C83.772 9.36904 83.362 9.48604 83.008 9.71804L82.795 9.03004C83.233 8.75904 83.774 8.62304 84.412 8.62304C85.644 8.62304 86.262 9.27304 86.262 10.573V12.309C86.262 12.78 86.285 13.155 86.33 13.433ZM85.242 11.813V11.086C84.086 11.066 83.508 11.383 83.508 12.036C83.508 12.282 83.574 12.466 83.709 12.589C83.8498 12.7138 84.0331 12.7797 84.221 12.773C84.451 12.773 84.666 12.7 84.862 12.555C84.9809 12.4716 85.0777 12.3604 85.1439 12.2311C85.2101 12.1018 85.2438 11.9583 85.242 11.813ZM92.285 13.433H91.355L91.306 12.676H91.277C90.98 13.252 90.474 13.54 89.763 13.54C89.195 13.54 88.722 13.317 88.347 12.871C87.972 12.425 87.785 11.846 87.785 11.135C87.785 10.372 87.988 9.75404 88.396 9.28204C88.791 8.84204 89.275 8.62204 89.851 8.62204C90.484 8.62204 90.927 8.83504 91.179 9.26204H91.199V6.55604H92.248V12.163C92.248 12.622 92.26 13.045 92.285 13.433ZM91.199 11.445V10.659C91.2089 10.4778 91.1772 10.2966 91.1065 10.1294C91.0358 9.96218 90.9279 9.81329 90.791 9.69404C90.5977 9.52372 90.3476 9.43202 90.09 9.43704C89.699 9.43704 89.393 9.59204 89.168 9.90304C88.945 10.214 88.832 10.611 88.832 11.096C88.832 11.562 88.939 11.94 89.154 12.231C89.381 12.541 89.687 12.696 90.07 12.696C90.414 12.696 90.689 12.567 90.898 12.308C91.1 12.069 91.199 11.781 91.199 11.445ZM101.248 11.037C101.248 11.762 101.041 12.356 100.627 12.822C100.193 13.301 99.619 13.54 98.9 13.54C98.209 13.54 97.658 13.311 97.246 12.851C96.836 12.392 96.631 11.813 96.631 11.115C96.631 10.385 96.842 9.78604 97.266 9.32104C97.69 8.85604 98.26 8.62304 98.979 8.62304C99.67 8.62304 100.227 8.85204 100.647 9.31104C101.047 9.75704 101.248 10.333 101.248 11.037ZM100.162 11.071C100.162 10.636 100.068 10.263 99.881 9.95204C99.66 9.57604 99.348 9.38804 98.94 9.38804C98.52 9.38804 98.2 9.57604 97.979 9.95204C97.791 10.263 97.698 10.642 97.698 11.09C97.698 11.525 97.792 11.898 97.979 12.209C98.206 12.585 98.522 12.773 98.93 12.773C99.33 12.773 99.645 12.582 99.871 12.199C100.064 11.882 100.162 11.506 100.162 11.071ZM106.883 13.433H105.836V10.733C105.836 9.90104 105.52 9.48504 104.885 9.48504C104.574 9.48504 104.323 9.59904 104.129 9.82804C103.935 10.057 103.838 10.327 103.838 10.636V13.432H102.789V10.066C102.789 9.65204 102.777 9.20304 102.752 8.71704H103.672L103.721 9.45404H103.75C103.878 9.2203 104.066 9.02415 104.293 8.88504C104.578 8.70904 104.895 8.62004 105.244 8.62004C105.683 8.62004 106.049 8.76204 106.34 9.04704C106.703 9.39604 106.883 9.91704 106.883 10.609V13.433ZM113.936 9.50404H112.782V11.794C112.782 12.376 112.987 12.667 113.393 12.667C113.581 12.667 113.737 12.651 113.86 12.618L113.887 13.413C113.68 13.491 113.408 13.53 113.073 13.53C112.659 13.53 112.337 13.404 112.104 13.152C111.87 12.9 111.754 12.476 111.754 11.881V9.50404H111.065V8.71904H111.754V7.85504L112.781 7.54504V8.71804H113.935V9.50404H113.936ZM119.484 13.433H118.435V10.753C118.435 9.90804 118.119 9.48504 117.486 9.48504C117 9.48504 116.668 9.73004 116.486 10.22C116.452 10.3427 116.435 10.4697 116.437 10.597V13.432H115.39V6.55604H116.437V9.39704H116.457C116.787 8.88004 117.26 8.62204 117.873 8.62204C118.307 8.62204 118.666 8.76404 118.951 9.04904C119.306 9.40404 119.484 9.93204 119.484 10.63V13.433ZM125.207 10.853C125.207 11.041 125.193 11.199 125.168 11.328H122.025C122.039 11.794 122.189 12.149 122.48 12.395C122.746 12.615 123.089 12.725 123.509 12.725C123.974 12.725 124.398 12.651 124.78 12.502L124.944 13.23C124.497 13.424 123.971 13.521 123.362 13.521C122.632 13.521 122.057 13.306 121.641 12.876C121.223 12.446 121.016 11.869 121.016 11.145C121.016 10.434 121.209 9.84204 121.598 9.37004C122.004 8.86604 122.553 8.61404 123.246 8.61404C123.924 8.61404 124.439 8.86604 124.787 9.37004C125.068 9.77004 125.207 10.265 125.207 10.853ZM124.207 10.582C124.222 10.2994 124.151 10.0189 124.004 9.77704C123.822 9.48604 123.545 9.34004 123.17 9.34004C123.007 9.33726 122.845 9.37476 122.7 9.44923C122.554 9.5237 122.429 9.63285 122.336 9.76704C122.158 10.0043 122.05 10.2866 122.025 10.582H124.207Z" fill="white"/>
</g>
<defs>
<filter id="filter0_d" x="0" y="0" width="143" height="48" filterUnits="userSpaceOnUse" color-interpolation-filters="sRGB">
<feFlood flood-opacity="0" result="BackgroundImageFix"/>
<feColorMatrix in="SourceAlpha" type="matrix" values="0 0 0 0 0 0 0 0 0 0 0 0 0 0 0 0 0 0 127 0" result="hardAlpha"/>
<feOffset dy="4"/>
<feGaussianBlur stdDeviation="2"/>
<feComposite in2="hardAlpha" operator="out"/>
<feColorMatrix type="matrix" values="0 0 0 0 0 0 0 0 0 0 0 0 0 0 0 0 0 0 0.25 0"/>
<feBlend mode="normal" in2="BackgroundImageFix" result="effect1_dropShadow"/>
<feBlend mode="normal" in="SourceGraphic" in2="effect1_dropShadow" result="shape"/>
</filter>
</defs>
</svg>
